<?xml version="1.0" encoding="utf-8"?>
<!-- Generator: Adobe Illustrator 28.0.0, SVG Export Plug-In . SVG Version: 6.00 Build 0)  -->
<svg version="1.1" id="Layer_1" xmlns="http://www.w3.org/2000/svg" xmlns:xlink="http://www.w3.org/1999/xlink" x="0px" y="0px"
	 viewBox="0 0 1366 768" style="enable-background:new 0 0 1366 768;" xml:space="preserve">
<style type="text/css">
	.st0{fill:#EA2625;}
	.st1{fill:#040404;}
</style>
<g>
	<path class="st0" d="M617.15,497.63h-33.22V339.47l-50.03,158.16h-17.07l-50.29-158.16v158.16h-26.6V316.97h50.95l37.85,116.34
		l37.19-116.34h51.22V497.63z"/>
	<path class="st0" d="M740.24,455.01l27.26,3.71c-3.53,12.09-10.41,22.06-20.65,29.91c-10.24,7.85-23.07,11.78-38.51,11.78
		c-18.53,0-33.44-6.22-44.73-18.66c-11.3-12.44-16.94-29.29-16.94-50.56c0-20.2,5.69-36.93,17.07-50.16
		c11.38-13.23,26.82-19.85,46.32-19.85c19.06,0,33.79,6.53,44.2,19.59c10.41,13.06,15.62,29.82,15.62,50.29l-0.13,3.44h-91.72
		c0,9.09,0.86,16.37,2.58,21.84c1.72,5.47,5.14,10.24,10.26,14.29c5.12,4.06,11.51,6.09,19.19,6.09
		C724.97,476.72,735.03,469.48,740.24,455.01z M738.39,415.04c-0.09-9.62-2.98-17.47-8.67-23.56c-5.69-6.09-12.73-9.13-21.11-9.13
		c-8.29,0-15.22,2.85-20.78,8.54c-5.56,5.69-8.82,13.74-9.79,24.15H738.39z"/>
	<path class="st0" d="M781.13,466.92l28.32-5.43c4.32,10.85,13.85,16.28,28.59,16.28c18.7,0,28.06-5.51,28.06-16.54
		c0-3.53-1.46-6.44-4.37-8.74c-2.91-2.29-6.35-3.84-10.32-4.63l-24.35-4.63c-27-5.21-40.5-18.4-40.5-39.57
		c0-11.82,4.28-21.86,12.84-30.11c8.56-8.25,21.31-12.37,38.25-12.37c28.23,0,45.48,10.37,51.75,31.1l-26.87,5.43
		c-2.82-10.06-10.85-15.09-24.09-15.09c-16.06,0-24.09,5.03-24.09,15.09c0,6.97,6.48,11.78,19.45,14.43l28.72,5.96
		c22.32,4.59,33.49,17.38,33.49,38.38c0,14.74-5.74,25.74-17.21,33.02c-11.47,7.28-25.1,10.92-40.89,10.92
		c-13.68,0-25.77-2.76-36.27-8.27C791.15,486.62,784.31,478.22,781.13,466.92z"/>
	<path d="M904.22,466.92l28.32-5.43c4.32,10.85,13.85,16.28,28.59,16.28c18.7,0,28.06-5.51,28.06-16.54c0-3.53-1.46-6.44-4.37-8.74
		c-2.91-2.29-6.35-3.84-10.32-4.63l-24.35-4.63c-27-5.21-40.5-18.4-40.5-39.57c0-11.82,4.28-21.86,12.84-30.11
		c8.56-8.25,21.31-12.37,38.25-12.37c28.23,0,45.48,10.37,51.75,31.1l-26.87,5.43c-2.82-10.06-10.85-15.09-24.09-15.09
		c-16.06,0-24.09,5.03-24.09,15.09c0,6.97,6.48,11.78,19.45,14.43l28.72,5.96c22.32,4.59,33.49,17.38,33.49,38.38
		c0,14.74-5.74,25.74-17.21,33.02c-11.47,7.28-25.1,10.92-40.89,10.92c-13.68,0-25.77-2.76-36.27-8.27
		C914.23,486.62,907.4,478.22,904.22,466.92z"/>
	<path d="M1073.63,348.34h-30.18v-31.37h30.18V348.34z M1073.63,497.63h-30.18V363.96h30.18V497.63z"/>
	<path d="M1224.24,497.63h-28.72c-2.56-8.12-4.1-17.12-4.63-27c-8.03,19.85-23.12,29.78-45.26,29.78c-13.32,0-24.02-3.9-32.09-11.71
		c-8.07-7.81-12.11-17.62-12.11-29.45c0-30.71,26.95-46.06,80.87-46.06c2.12,0,4.98,0.05,8.6,0.13v-10.06
		c0-13.85-9.44-20.78-28.32-20.78c-18.35,0-28.77,6.93-31.23,20.78l-25.68-3.84c1.41-11.12,7.15-20.27,17.21-27.46
		c10.06-7.19,24.62-10.79,43.68-10.79c10.32,0,18.75,0.86,25.28,2.58c6.53,1.72,12.04,4.63,16.54,8.73c4.5,4.1,7.61,8.56,9.33,13.37
		c1.72,4.81,2.58,12.95,2.58,24.42v60.35C1220.27,479.36,1221.59,488.36,1224.24,497.63z M1190.89,429.6c-39,0-58.5,9.31-58.5,27.93
		c0,5.56,1.96,10.3,5.89,14.23c3.92,3.93,9.86,5.89,17.8,5.89c11.47,0,20.14-3.64,26.01-10.92c5.87-7.28,8.8-15.55,8.8-24.82V429.6z
		"/>
	<path d="M1240.12,466.92l28.32-5.43c4.32,10.85,13.85,16.28,28.59,16.28c18.7,0,28.06-5.51,28.06-16.54c0-3.53-1.46-6.44-4.37-8.74
		c-2.91-2.29-6.35-3.84-10.32-4.63l-24.35-4.63c-27-5.21-40.5-18.4-40.5-39.57c0-11.82,4.28-21.86,12.84-30.11
		c8.56-8.25,21.31-12.37,38.25-12.37c28.23,0,45.48,10.37,51.75,31.1l-26.87,5.43c-2.83-10.06-10.85-15.09-24.09-15.09
		c-16.06,0-24.09,5.03-24.09,15.09c0,6.97,6.48,11.78,19.45,14.43l28.72,5.96c22.32,4.59,33.48,17.38,33.48,38.38
		c0,14.74-5.73,25.74-17.2,33.02c-11.47,7.28-25.1,10.92-40.9,10.92c-13.68,0-25.76-2.76-36.26-8.27
		C1250.13,486.62,1243.3,478.22,1240.12,466.92z"/>
</g>
<g>
	<path class="st1" d="M11.86,400.01c13.72-6.51,26.65-12.72,39.63-18.8c10.49-4.92,21.03-9.75,31.61-14.49
		c1.87-0.84,2.67-2.18,3.41-3.9c15.53-36.12,41.59-61.58,78.24-75.75c55.01-21.27,118.36-4.07,155.35,41.7
		c66.22,81.93,19.74,204.63-84.17,222.21c-74.92,12.67-147.27-39.82-157.85-114.59c-0.39-2.78-1.46-4.41-4.07-5.68
		C53.52,420.7,33.11,410.53,11.86,400.01z M333.43,415.15c-0.18-65.93-54.17-119.78-119.92-119.61
		c-65.92,0.18-120.15,54-119.83,118.93c0.33,67.69,53.71,121.04,121,120.94C279.52,535.31,333.61,480.53,333.43,415.15z"/>
	<path class="st0" d="M93.49,321.29c3.48-16.66,8.65-32.03,15.77-46.76c9.81-20.28,22.67-38.34,40.98-51.69
		c31.45-22.92,64.99-25,99.8-8c9.59,4.68,17.77,11.54,26.38,17.74c12.99,9.35,27.2,15.16,43.62,13.65c10.9-1,20.51-5.19,29-12.03
		c1.49-1.2,2.86-2.54,4.64-4.14c0.8,4.93,0.32,9.43-0.29,13.89c-1.68,12.23-5.45,23.61-12.95,33.71
		c-12.1,16.28-34.52,16.64-47.02,8.85c-29.84-18.61-62.64-26.15-97.82-21.8c-40.71,5.03-73.89,23.88-100.37,54.91
		C94.86,320.08,94.39,320.44,93.49,321.29z"/>
	<path class="st1" d="M169.66,360.69c12.61-0.13,22.55,9.59,22.78,22.26c0.23,12.93-9.72,23.12-22.66,23.2
		c-12.78,0.07-22.76-9.76-22.92-22.58C146.7,370.49,156.33,360.83,169.66,360.69z"/>
</g>
</svg>
